<svg xmlns="http://www.w3.org/2000/svg" xmlns:xlink="http://www.w3.org/1999/xlink" viewBox="0 0 353.4 70.92"><defs><style>.cls-1,.cls-2{fill:none;}.cls-2{clip-rule:evenodd;}.cls-3{isolation:isolate;}.cls-4{clip-path:url(#clip-path);}.cls-5{clip-path:url(#clip-path-2);}.cls-6{clip-path:url(#clip-path-3);}.cls-7{fill:#1f1a4f;}.cls-8{clip-path:url(#clip-path-4);}.cls-9{clip-path:url(#clip-path-6);}.cls-10{clip-path:url(#clip-path-8);}.cls-11{clip-path:url(#clip-path-10);}.cls-12{clip-path:url(#clip-path-12);}.cls-13{clip-path:url(#clip-path-14);}.cls-14{clip-path:url(#clip-path-16);}.cls-15{clip-path:url(#clip-path-18);}</style><clipPath id="clip-path" transform="translate(5 4)"><rect class="cls-1" width="344" height="63"/></clipPath><clipPath id="clip-path-2" transform="translate(5 4)"><path class="cls-2" d="M31.23,1a31.24,31.24,0,0,0-9.87,60.87c1.56.29,2.13-.68,2.13-1.5s0-3.21,0-5.82c-8.69,1.89-10.52-3.68-10.52-3.68-1.42-3.61-3.47-4.57-3.47-4.57-2.83-1.94.21-1.9.21-1.9,3.14.22,4.79,3.22,4.79,3.22,2.79,4.77,7.31,3.39,9.09,2.59a6.64,6.64,0,0,1,2-4.17C18.6,45.25,11.3,42.57,11.3,30.6a12.08,12.08,0,0,1,3.22-8.38,11.29,11.29,0,0,1,.3-8.27s2.63-.84,8.6,3.2a29.65,29.65,0,0,1,15.64,0c6-4,8.58-3.2,8.58-3.2a11.18,11.18,0,0,1,.3,8.27,12,12,0,0,1,3.22,8.38c0,12-7.31,14.64-14.26,15.41C38,47,39,48.88,39,51.8c0,4.17,0,7.54,0,8.57,0,.83.56,1.8,2.14,1.5A31.24,31.24,0,0,0,31.23,1"/></clipPath><clipPath id="clip-path-3" transform="translate(5 4)"><rect class="cls-1" y="1" width="344" height="61"/></clipPath><clipPath id="clip-path-4" transform="translate(5 4)"><path class="cls-2" d="M11.83,45.84c-.07.16-.31.21-.54.1s-.35-.32-.28-.47.32-.2.54-.1.36.32.28.47"/></clipPath><clipPath id="clip-path-6" transform="translate(5 4)"><path class="cls-2" d="M13.09,47.25c-.14.14-.44.08-.63-.14s-.25-.51-.09-.65.43-.07.64.15.24.5.08.64"/></clipPath><clipPath id="clip-path-8" transform="translate(5 4)"><path class="cls-2" d="M14.33,49.05c-.2.14-.51,0-.7-.27s-.19-.61,0-.74.5,0,.7.26.19.62,0,.75"/></clipPath><clipPath id="clip-path-10" transform="translate(5 4)"><path class="cls-2" d="M16,50.79c-.17.19-.53.14-.8-.12s-.35-.61-.18-.8.54-.13.81.12.36.61.17.8"/></clipPath><clipPath id="clip-path-12" transform="translate(5 4)"><path class="cls-2" d="M18.34,51.8c-.07.24-.43.36-.78.25s-.58-.39-.51-.64.42-.36.78-.25.58.39.51.64"/></clipPath><clipPath id="clip-path-14" transform="translate(5 4)"><path class="cls-2" d="M20.9,52c0,.25-.29.47-.67.47s-.67-.2-.68-.45.3-.47.67-.48.68.2.68.46"/></clipPath><clipPath id="clip-path-16" transform="translate(5 4)"><path class="cls-2" d="M23.28,51.58c0,.25-.22.51-.59.58s-.7-.09-.74-.34.22-.51.58-.58.7.09.75.34"/></clipPath><clipPath id="clip-path-18" transform="translate(5 4)"><path class="cls-1" d="M334.72,40.7c-3.33,0-5.46-2.39-5.46-6.14V31.64c0-3.73,2.13-6.13,5.46-6.13s5.49,2.4,5.49,6.13v2.92C340.21,38.29,338.08,40.7,334.72,40.7Zm.93,2.9c4.69,0,7.75-3.38,7.75-8.59V31.23c0-5.19-3.06-8.57-7.75-8.57-2.93,0-5.08,1.25-6,3.47h-.34V15H326.1V43.26h3.12v-3.1h.36C330.62,42.4,332.75,43.6,335.65,43.6ZM311,40.84c-2.56,0-4.15-1.31-4.15-3.44s1.49-3.33,4.33-3.46l5.22-.24v2.39C316.36,38.8,314,40.84,311,40.84ZM310,43.62c2.95,0,5.16-1.22,6.13-3.38h.32v3h3V29.4c0-4.22-2.72-6.65-7.49-6.65-4.15,0-7.28,2.22-7.66,5.47h3.12c.53-1.73,2.17-2.72,4.5-2.72,2.83,0,4.38,1.4,4.38,3.94v1.83l-5.57.28c-4.62.24-7.19,2.37-7.19,6S306.17,43.62,310,43.62ZM299,43.26V40.2H286.17V16.3H282.9v27Zm-59.38,7.22c3.76,0,5.46-1.48,7.23-6.47l7.64-21h-3.38L245.4,40h-.24l-5.68-17H236l7.46,20.4-.36,1.11c-.84,2.35-1.89,3.21-3.79,3.21a7.82,7.82,0,0,1-1.12-.07v2.78A12.65,12.65,0,0,0,239.57,50.48Zm-12.7-7.12c1,0,3.44-.1,3.94-.19V40.48c-.54.06-2.57.11-3.71.11-2.86,0-4.41-1.19-4.41-3.4V25.76h8.18V23.05h-8.22V17.56h-3.14v5.49h-5.4v2.71h5.4V37.23C219.51,41.45,221.85,43.36,226.87,43.36Zm-17.33-.1V40.63h-6.71V23h-10v2.64h6.9v15h-7v2.63ZM201,18a2.61,2.61,0,1,0-2.63-2.61A2.56,2.56,0,0,0,201,18ZM183.88,43.26V40.72H177.6V34.18c0-5.15,2.65-8.25,7.14-8.25a10.58,10.58,0,0,1,3.34.56V22.92a8.31,8.31,0,0,0-2.93-.45c-3.91,0-6.43,1.94-7.18,5.7h-.41V23H170v2.54h4.5V40.72h-4.09v2.54Zm-29.25.38a6.6,6.6,0,0,0,6.48-3.94h.26v3.56h3V23h-3.18V34.93c0,3.46-2.24,5.79-5.59,5.79-3.15,0-4.65-1.72-4.65-5.38V23h-3.17V36.15C147.83,41,150.22,43.64,154.63,43.64Zm-20.42,0c4.49,0,7.57-2.52,8.07-6.65h-3.14c-.39,2.31-2.37,3.79-5,3.79-3.54,0-5.5-2.39-5.5-6.75V32.2c0-4.35,2-6.76,5.5-6.76a4.69,4.69,0,0,1,5,3.87h3.14c-.52-4.17-3.58-6.71-8.07-6.71-5.51,0-8.72,3.38-8.72,9.19v2.66C125.49,40.26,128.7,43.64,134.21,43.64ZM117,31.55H106.36c0-3.89,2-6.2,5.42-6.2S117,27.68,117,31.55Zm-5,12.09c4.26,0,7.48-2.26,8.09-5.61H117c-.56,1.78-2.45,2.86-5,2.86-3.45,0-5.66-2.39-5.66-6.11V34h13.81V32c0-5.87-3.1-9.36-8.37-9.36s-8.58,3.51-8.58,8.85v3.05C103.22,40.29,106.46,43.64,112,43.64Zm-22.48.18c5.64,0,9.28-3.08,9.28-7.92,0-4-2.2-6.33-7.43-7.62L89,27.68c-3.51-.88-5-2.22-5-4.56,0-2.74,2.08-4.39,5.53-4.39,3.18,0,5.24,1.65,5.57,4.43h3.22c-.23-4.48-3.72-7.42-8.8-7.42-5.39,0-8.84,3-8.84,7.57,0,3.9,2.26,6.28,7.27,7.55l2.31.58c3.65.89,5.22,2.3,5.22,4.63,0,2.9-2.36,4.77-6,4.77s-6-1.8-6.29-4.75H80C80.32,40.87,84,43.82,89.54,43.82Z"/></clipPath></defs><g id="Layer_2" data-name="Layer 2"><g id="Layer_1-2" data-name="Layer 1"><g class="cls-3"><g class="cls-4"><g class="cls-5"><g class="cls-6"><rect class="cls-7" width="72.47" height="70.92"/></g></g><g class="cls-8"><g class="cls-6"><rect class="cls-7" x="10.99" y="44.31" width="10.86" height="10.68"/></g></g><g class="cls-9"><g class="cls-6"><rect class="cls-7" x="12.27" y="45.39" width="10.92" height="10.94"/></g></g><g class="cls-10"><g class="cls-6"><rect class="cls-7" x="13.49" y="46.98" width="10.99" height="11.12"/></g></g><g class="cls-11"><g class="cls-6"><rect class="cls-7" x="14.94" y="48.76" width="11.17" height="11.14"/></g></g><g class="cls-12"><g class="cls-6"><rect class="cls-7" x="17.03" y="50.12" width="11.32" height="10.97"/></g></g><g class="cls-13"><g class="cls-6"><rect class="cls-7" x="19.55" y="50.53" width="11.34" height="10.93"/></g></g><g class="cls-14"><g class="cls-6"><rect class="cls-7" x="21.94" y="50.23" width="11.34" height="10.95"/></g></g><g class="cls-15"><g class="cls-6"><rect class="cls-7" x="80.04" y="11.81" width="273.36" height="47.67"/></g></g></g></g></g></g></svg>